# xmcd CD database file
#
# Track frame offsets:
#	150
#	20349
#	41029
#	58036
#	78943
#	103620
#	123242
#	141209
#	163041
#	186763
#	210267
#
# Disc length: 3132 seconds
#
# Revision: 2
# Processed by: cddbd v1.5.1PL0 Copyright (c) Steve Scherf et al.
# Submitted via: CDex 1.51
#
DISCID=8c0c3a0b
DTITLE=AIR - FREEDOM/99
DYEAR=1999
DGENRE=Rock
TTITLE0=REAL SAY JUICE
TTITLE1=LIBERAL
TTITLE2=SELFISH
TTITLE3=6453
TTITLE4=NATIVE
TTITLE5=NO MORE DOLLY
TTITLE6=運命はいくつもある
TTITLE7=昼より先に夜を切り裂け
TTITLE8=ここで確かに
TTITLE9=リヴ
TTITLE10=触れていたい
EXTD=YEAR: 1999
EXTT0=
EXTT1=
EXTT2=
EXTT3=
EXTT4=
EXTT5=
EXTT6=
EXTT7=
EXTT8=
EXTT9=
EXTT10=
PLAYORDER=
